HIERARCHY
ROOT Hips
{
  OFFSET -281.651 97.1148 -141.593
  CHANNELS 6 Xposition Yposition Zposition Zrotation Xrotation Yrotation
  JOINT RightUpLeg
  {
    OFFSET -8.9458 -8.66707 0.101652
    CHANNELS 3 Zrotation Xrotation Yrotation
    JOINT RightLeg
    {
      OFFSET 0 -44.4227 1.3727
      CHANNELS 3 Zrotation Xrotation Yrotation
      JOINT RightFoot
      {
        OFFSET 0.253549 -42.0924 -1.46059
        CHANNELS 3 Zrotation Xrotation Yrotation
        JOINT RightToes
        {
          OFFSET 0.04 -4.41509 8.4991
          CHANNELS 3 Zrotation Xrotation Yrotation
          End Site
          {
            OFFSET -0.08 -0.137448 9.77979
          }
        }
      }
    }
  }
  JOINT Spine
  {
    OFFSET 0 11.8905 0
    CHANNELS 3 Zrotation Xrotation Yrotation
    JOINT Spine1
    {
      OFFSET 0 25.6574 0.127663
      CHANNELS 3 Zrotation Xrotation Yrotation
      JOINT HEad
      {
        OFFSET 0 8.73416 0.011341
        CHANNELS 3 Zrotation Xrotation Yrotation
        End Site
        {
          OFFSET -0.29 12.7742 2.51395
        }
      }
      JOINT LeftShoulder1
      {
        OFFSET 8.99 -0.362252 -0.22
        CHANNELS 3 Zrotation Xrotation Yrotation
        JOINT LeftArm
        {
          OFFSET 10.2827 -0.00338 0.322123
          CHANNELS 3 Zrotation Xrotation Yrotation
          JOINT LeftForeArm
          {
            OFFSET 32.7669 0.099144 -1.42434
            CHANNELS 3 Zrotation Xrotation Yrotation
            JOINT LeftHand
            {
              OFFSET 27.5643 0.085362 1.02216
              CHANNELS 3 Zrotation Xrotation Yrotation
              End Site
              {
                OFFSET 16.7443 -0.6 1.50291
              }
            }
          }
        }
      }
      JOINT RightShoulder
      {
        OFFSET -8.99 -0.362252 -0.22
        CHANNELS 3 Zrotation Xrotation Yrotation
        JOINT RightArm
        {
          OFFSET -10.2827 -0.00338 0.322123
          CHANNELS 3 Zrotation Xrotation Yrotation
          JOINT RightForeArm
          {
            OFFSET -32.8971 0.099144 -1.42434
            CHANNELS 3 Zrotation Xrotation Yrotation
            JOINT RightHand
            {
              OFFSET -27.4921 0.085362 1.02216
              CHANNELS 3 Zrotation Xrotation Yrotation
              End Site
              {
                OFFSET -16.6312 -0.6 1.50291
              }
            }
          }
        }
      }
    }
  }
  JOINT LeftUpLeg
  {
    OFFSET 8.9458 -8.66707 0.101652
    CHANNELS 3 Zrotation Xrotation Yrotation
    JOINT LeftLeg
    {
      OFFSET 0 -44.4227 1.3727
      CHANNELS 3 Zrotation Xrotation Yrotation
      JOINT LeftFoot
      {
        OFFSET -0.253549 -42.0924 -1.46059
        CHANNELS 3 Zrotation Xrotation Yrotation
        JOINT LeftToes
        {
          OFFSET -0.04 -4.41509 8.4991
          CHANNELS 3 Zrotation Xrotation Yrotation
          End Site
          {
            OFFSET 0.08 -0.047448 9.77979
          }
        }
      }
    }
  }
}
MOTION
Frames:	8
Frame Time:	0.0166667
-298.591 97.4196 -129.141 -8.28703 -7.46141 -153.566 -17.7189 -25.3464 -11.8531 20.0635 69.4422 -23.7904 -6.70969 1.67357 -0.301379 0.0462048 0.000533403 0.662642 -9.26891 12.6128 15.0893 0.0218727 0.00309001 -0.00652985 -35.2597 11.4872 36.9641 -0 0 3.18055e-015 146.289 -57.5556 159.474 -89.6393 52.6131 -45.159 3.72802 24.3431 -4.44166 18.829 9.62915 7.64429 79.6123 -12.645 84.0705 55.2946 60.0748 64.2766 -11.3503 20.674 3.66476 -14.2161 -33.1179 15.4651 26.2935 29.6087 -31.3625 29.7439 -2.49191 1.82279 -1.18447e-009 1.5602e-007 -4.87131e-009 
-296.985 97.3843 -130.709 -8.3375 -6.82126 -153.407 -21.1081 -26.8073 -8.96219 14.472 70.9826 -22.0434 -1.90986 1.72429 -0.265731 0.0462048 0.000533403 0.662642 -10.0134 12.3626 13.6486 0.0195528 0.00309001 -0.00652985 -37.5453 12.9192 39.4862 1.59028e-015 0 -3.18055e-015 144.999 -58.4477 158.149 -89.7466 52.3862 -45.2647 3.76412 24.6665 -4.35096 19.1534 10.5428 8.40643 78.7361 -13.4507 83.8885 54.5077 59.279 64.519 -11.1289 20.2618 4.65909 -13.4032 -31.3886 15.0923 25.3097 28.9808 -31.0241 37.3566 -1.86591 1.82094 -1.18446e-009 1.5602e-007 -4.87131e-009 
-295.431 97.4857 -132.183 -8.3513 -6.17083 -153.265 -23.4263 -28.073 -6.16049 1.88136 70.8767 -12.0092 0.425644 1.03219 -0.190599 0.0462048 0.000533403 0.662642 -10.4344 12.3168 12.352 0.0173629 0.00309001 -0.00652985 -39.698 13.9913 41.6359 1.59028e-015 -1.59028e-015 -0 143.981 -59.2069 157.326 -89.6409 52.5343 -45.5153 3.84323 24.7651 -4.15081 19.3081 11.2477 9.18134 77.8174 -14.2157 83.6467 53.8762 58.5124 65.1754 -10.8252 19.8702 5.21522 -12.1456 -29.5076 14.9447 23.6554 28.0135 -30.4406 44.8062 -1.12116 1.57361 -1.18446e-009 1.5602e-007 -4.87131e-009 
-293.903 97.6753 -133.527 -8.29904 -5.514 -153.132 -25.2608 -28.9697 -3.33969 -11.9654 67.8877 0.554246 6.92937 0.267761 -0.210316 0.0462048 0.000533403 0.662642 -10.5398 12.4237 11.2013 0.0149129 0.00309001 -0.00652985 -41.63 14.7865 43.379 3.18055e-015 1.59028e-015 9.54166e-015 143.308 -59.8638 157.02 -89.3865 52.8548 -45.8149 4.06455 24.5277 -3.90256 19.2651 11.7703 9.94852 76.953 -14.8867 83.3954 53.3183 57.8073 65.9435 -10.303 19.813 5.14401 -10.558 -27.4505 14.9302 21.3708 26.6239 -29.6708 52.0428 -0.258373 1.03307 -1.18446e-009 1.5602e-007 -4.87131e-009 
-292.368 97.8584 -134.717 -8.16815 -4.86528 -153 -26.2506 -29.5007 -0.591239 -20.7443 62.0641 9.17366 11.5546 -0.685256 0.0376589 0.0462048 0.000533403 0.662642 -10.3752 12.6327 10.1907 0.011553 0.00309001 -0.00652985 -43.2696 15.3787 44.7048 -2.38542e-015 3.18055e-015 -0 143.033 -60.4309 157.244 -89.0264 53.2336 -46.0976 4.31374 24.2634 -3.61017 18.9741 12.1221 10.6861 76.2386 -15.4498 83.1752 52.8193 57.1772 66.6778 -9.78127 19.6751 5.061 -8.76996 -25.3165 14.9677 18.7081 24.8548 -28.9033 58.9403 0.669921 0.226991 -1.18447e-009 1.5602e-007 -4.87132e-009 
-290.749 97.9364 -135.831 -7.95325 -4.23489 -152.85 -26.8789 -29.6525 2.01748 -23.4969 56.2493 12.2682 16.5709 -1.51237 0.320469 0.0462048 0.000533403 0.662642 -10.0043 12.9002 9.30886 0.00795169 0.00309001 -0.00652985 -43.0637 15.7583 44.5943 0 0 -0 143.199 -60.9051 158.006 -88.5812 53.6053 -46.335 4.67783 23.8874 -3.34745 18.4266 12.3015 11.3849 75.7216 -15.9213 83.0067 52.3881 56.6189 67.3101 -9.16902 19.6904 4.74954 -6.82052 -23.2351 15.0215 15.9904 22.8693 -28.333 65.2989 1.564 -0.741458 -1.18447e-009 1.5602e-007 -4.87131e-009 
-289.036 97.9041 -136.909 -7.61682 -3.62738 -152.661 -27.0478 -29.4255 4.44017 -23.5835 50.7341 13.2173 20.2061 -2.24391 0.662738 0.0462048 0.000533403 0.662642 -9.44102 13.1772 8.54028 0.00477277 0.00309001 -0.00652985 -42.6869 16.0693 44.247 -2.38542e-015 0 -0 143.855 -61.2769 159.297 -88.0528 53.9294 -46.5384 5.00842 23.6159 -3.16028 17.72 12.3195 12.0361 75.3517 -16.3371 82.8984 52.0335 56.1126 67.8388 -8.7044 19.6444 4.60813 -4.70999 -21.2413 15.077 13.3566 20.6853 -28.0343 71.002 2.41812 -1.84236 -1.18446e-009 1.5602e-007 -4.87131e-009 
-287.242 97.7537 -138.034 -7.178 -3.04566 -152.41 -27.0293 -28.7669 6.61694 -22.7192 47.3928 12.8552 23.2084 -2.60614 0.901008 0.0462048 0.000533403 0.662642 -8.73055 13.4433 7.86929 0.00258214 0.00309001 -0.00652985 -42.1318 16.3171 43.6912 2.38542e-015 1.59028e-015 6.36111e-015 145.039 -61.5334 161.076 -87.4294 54.1659 -46.7405 5.33942 23.358 -3.04519 16.9536 12.1959 12.624 75.0883 -16.709 82.8668 51.7564 55.6385 68.276 -8.28605 19.686 4.44178 -2.48854 -19.4097 15.1238 11.0131 18.5131 -28.0259 75.9472 3.14662 -2.9196 -1.18446e-009 1.5602e-007 -4.87131e-009 
